<svg width="20" height="21" viewBox="0 0 20 21" fill="none" xmlns="http://www.w3.org/2000/svg">
<path d="M17.9438 17.5575L14.0321 13.6466C15.1659 12.2854 15.7312 10.5395 15.6106 8.77214C15.4899 7.00475 14.6925 5.35192 13.3843 4.15748C12.076 2.96304 10.3576 2.31895 8.58657 2.3592C6.81552 2.39945 5.12818 3.12094 3.87553 4.37358C2.62289 5.62622 1.9014 7.31357 1.86115 9.08462C1.8209 10.8557 2.46499 12.574 3.65943 13.8823C4.85387 15.1906 6.5067 15.988 8.27409 16.1086C10.0415 16.2293 11.7874 15.6639 13.1485 14.5302L17.0595 18.4419C17.1175 18.4999 17.1865 18.546 17.2623 18.5774C17.3382 18.6089 17.4195 18.625 17.5016 18.625C17.5838 18.625 17.6651 18.6089 17.741 18.5774C17.8168 18.546 17.8858 18.4999 17.9438 18.4419C18.0019 18.3838 18.048 18.3149 18.0794 18.239C18.1108 18.1631 18.127 18.0818 18.127 17.9997C18.127 17.9176 18.1108 17.8363 18.0794 17.7604C18.048 17.6845 18.0019 17.6156 17.9438 17.5575ZM3.12664 9.24969C3.12664 8.13717 3.45654 7.04963 4.07463 6.12461C4.69271 5.19958 5.57121 4.47861 6.59905 4.05287C7.62688 3.62712 8.75788 3.51573 9.84903 3.73277C10.9402 3.94981 11.9424 4.48554 12.7291 5.27221C13.5158 6.05888 14.0515 7.06116 14.2686 8.15231C14.4856 9.24345 14.3742 10.3744 13.9485 11.4023C13.5227 12.4301 12.8018 13.3086 11.8767 13.9267C10.9517 14.5448 9.86416 14.8747 8.75164 14.8747C7.26031 14.873 5.83053 14.2799 4.77599 13.2253C3.72146 12.1708 3.1283 10.741 3.12664 9.24969Z" fill="#939393"/>
</svg>
